<svg width="348" height="189" viewBox="0 0 348 189" fill="none" xmlns="http://www.w3.org/2000/svg">
<path d="M174 0L190.633 49.0847L240.587 7.19338L221.368 55.9988L297.037 27.6784L244.891 68.7743L334.755 58.3364L257.622 85.4663L348 94.5L257.622 103.534L334.755 130.664L244.891 120.226L297.037 161.322L221.368 133.001L240.587 181.807L190.633 139.915L174 189L157.367 139.915L107.413 181.807L126.632 133.001L50.9634 161.322L103.109 120.226L13.245 130.664L90.3783 103.534L0 94.5L90.3783 85.4663L13.245 58.3364L103.109 68.7743L50.9634 27.6784L126.632 55.9988L107.413 7.19338L157.367 49.0847L174 0Z" fill="#FEFEFE"/>
</svg>
