<svg width="131" height="82" viewBox="0 0 131 82" fill="none" xmlns="http://www.w3.org/2000/svg">
<g filter="url(#filter0_d)">
<path d="M29.892 55.036C30.612 51.796 31.296 48.628 31.944 45.532C32.208 44.236 32.484 42.868 32.772 41.428C33.06 39.988 33.336 38.572 33.6 37.18C33.864 35.788 34.116 34.444 34.356 33.148C34.596 31.852 34.8 30.664 34.968 29.584C35.664 29.368 36.348 29.188 37.02 29.044C37.692 28.876 38.376 28.732 39.072 28.612C39.792 28.492 40.464 28.432 41.088 28.432C42.168 28.432 43.068 28.612 43.788 28.972C44.532 29.332 45.132 29.824 45.588 30.448C46.044 31.048 46.368 31.756 46.56 32.572C46.752 33.388 46.848 34.264 46.848 35.2C46.848 36.544 46.596 37.84 46.092 39.088C45.612 40.336 44.952 41.452 44.112 42.436C43.296 43.396 42.348 44.164 41.268 44.74C40.212 45.316 39.108 45.604 37.956 45.604H37.56C37.368 46.42 37.188 47.308 37.02 48.268C36.852 49.228 36.708 50.116 36.588 50.932C36.42 51.892 36.264 52.852 36.12 53.812L29.892 55.036ZM39.936 32.788C39.672 34.372 39.408 35.872 39.144 37.288C38.88 38.704 38.592 40.216 38.28 41.824C38.664 41.728 39.06 41.512 39.468 41.176C39.9 40.816 40.296 40.36 40.656 39.808C41.016 39.232 41.304 38.572 41.52 37.828C41.736 37.084 41.844 36.304 41.844 35.488C41.844 34.6 41.64 33.928 41.232 33.472C40.848 33.016 40.416 32.788 39.936 32.788ZM43.7846 55.036C44.4326 51.844 45.0566 48.724 45.6566 45.676C45.8726 44.38 46.1126 43.036 46.3766 41.644C46.6406 40.228 46.8806 38.836 47.0966 37.468C47.3366 36.076 47.5526 34.744 47.7446 33.472C47.9606 32.176 48.1286 31 48.2486 29.944C49.6166 29.512 51.0926 29.2 52.6766 29.008C54.2606 28.792 55.8326 28.684 57.3926 28.684C58.3286 28.684 59.0966 28.792 59.6966 29.008C60.3206 29.224 60.8006 29.536 61.1366 29.944C61.4966 30.328 61.7486 30.784 61.8926 31.312C62.0366 31.84 62.1086 32.428 62.1086 33.076C62.1086 34.036 61.9406 34.984 61.6046 35.92C61.2686 36.832 60.8126 37.708 60.2366 38.548C59.6846 39.364 59.0366 40.12 58.2926 40.816C57.5726 41.488 56.7926 42.04 55.9526 42.472C56.3846 43.432 56.8406 44.488 57.3206 45.64C57.8246 46.768 58.2926 47.848 58.7246 48.88C59.2046 50.08 59.6966 51.28 60.2006 52.48L54.6206 54.424C54.1406 52.768 53.7086 51.208 53.3246 49.744C53.1566 49.144 52.9886 48.532 52.8206 47.908C52.6526 47.26 52.4966 46.66 52.3526 46.108C52.2086 45.532 52.0886 45.028 51.9926 44.596C51.8966 44.164 51.8366 43.828 51.8126 43.588L51.3446 43.732C51.2006 44.5 51.0206 45.436 50.8046 46.54C50.6126 47.644 50.4326 48.712 50.2646 49.744C50.0486 50.968 49.8326 52.228 49.6166 53.524L43.7846 55.036ZM52.2446 39.412C52.7006 39.364 53.2526 39.172 53.9006 38.836C54.5726 38.5 55.2086 38.104 55.8086 37.648C56.4086 37.168 56.9246 36.676 57.3566 36.172C57.7886 35.668 58.0046 35.224 58.0046 34.84C58.0046 34.576 57.9206 34.372 57.7526 34.228C57.5846 34.06 57.3446 33.94 57.0326 33.868C56.7446 33.772 56.4206 33.712 56.0606 33.688C55.7006 33.664 55.3286 33.652 54.9446 33.652C54.6806 33.652 54.4046 33.664 54.1166 33.688C53.8526 33.688 53.6126 33.688 53.3966 33.688L52.2446 39.412ZM78.9178 35.524C78.9178 37.492 78.7018 39.352 78.2698 41.104C77.8618 42.832 77.3098 44.428 76.6138 45.892C75.9178 47.332 75.1018 48.628 74.1658 49.78C73.2538 50.908 72.2938 51.88 71.2858 52.696C70.2778 53.488 69.2578 54.1 68.2258 54.532C67.1938 54.94 66.2098 55.144 65.2738 55.144C64.4818 55.144 63.7618 55 63.1138 54.712C62.4658 54.4 61.9018 53.956 61.4218 53.38C60.9418 52.78 60.5578 52.024 60.2698 51.112C60.0058 50.176 59.8738 49.06 59.8738 47.764C59.8738 46.42 60.0418 45.004 60.3778 43.516C60.7138 42.028 61.1698 40.552 61.7458 39.088C62.3218 37.624 63.0298 36.232 63.8698 34.912C64.7098 33.592 65.6338 32.428 66.6418 31.42C67.6498 30.388 68.7298 29.572 69.8818 28.972C71.0338 28.372 72.2338 28.072 73.4818 28.072C74.5618 28.072 75.4498 28.3 76.1458 28.756C76.8658 29.188 77.4178 29.764 77.8018 30.484C78.2098 31.18 78.4978 31.972 78.6658 32.86C78.8338 33.748 78.9178 34.636 78.9178 35.524ZM65.2378 46.828C65.2378 47.092 65.2858 47.368 65.3818 47.656C65.4778 47.944 65.6098 48.196 65.7778 48.412C65.9458 48.628 66.1498 48.82 66.3898 48.988C66.6538 49.132 66.9298 49.204 67.2178 49.204C68.2978 49.204 69.2578 48.832 70.0978 48.088C70.9378 47.344 71.6338 46.432 72.1858 45.352C72.7378 44.272 73.1578 43.12 73.4458 41.896C73.7578 40.672 73.9138 39.556 73.9138 38.548C73.9138 38.26 73.8898 37.948 73.8418 37.612C73.8178 37.276 73.7458 36.964 73.6258 36.676C73.5298 36.388 73.3618 36.148 73.1218 35.956C72.9058 35.74 72.6058 35.632 72.2218 35.632C71.4538 35.632 70.7458 35.824 70.0978 36.208C69.4498 36.592 68.8618 37.108 68.3338 37.756C67.8298 38.38 67.3858 39.1 67.0018 39.916C66.6178 40.708 66.2818 41.524 65.9938 42.364C65.7298 43.18 65.5378 43.984 65.4178 44.776C65.2978 45.568 65.2378 46.252 65.2378 46.828ZM86.783 55.036C87.335 52.396 87.863 49.792 88.367 47.224C88.583 46.144 88.799 45.016 89.015 43.84C89.231 42.664 89.435 41.512 89.627 40.384C89.843 39.232 90.023 38.128 90.167 37.072C90.335 35.992 90.479 35.008 90.599 34.12C90.047 34.048 89.483 34.024 88.907 34.048C88.355 34.072 87.803 34 87.251 33.832C87.275 33.448 87.287 33.004 87.287 32.5C87.287 31.996 87.299 31.492 87.323 30.988C87.347 30.436 87.371 29.848 87.395 29.224C88.019 29.272 88.643 29.308 89.267 29.332C89.891 29.356 90.515 29.368 91.139 29.368C92.363 29.368 93.539 29.344 94.667 29.296C95.819 29.224 96.875 29.152 97.835 29.08C98.819 28.984 99.779 28.876 100.715 28.756L100.319 30.7C100.199 31.252 100.079 31.816 99.959 32.392C99.863 32.968 99.767 33.46 99.671 33.868C99.143 34.012 98.603 34.12 98.051 34.192C97.523 34.24 96.995 34.312 96.467 34.408C96.299 35.224 96.119 36.136 95.927 37.144C95.735 38.128 95.543 39.16 95.351 40.24C95.183 41.296 95.015 42.376 94.847 43.48C94.679 44.584 94.511 45.64 94.343 46.648C93.959 49.024 93.599 51.484 93.263 54.028L86.783 55.036ZM102.098 54.28C101.882 54.28 101.462 54.316 100.838 54.388C100.214 54.436 99.5662 54.508 98.8942 54.604C98.2222 54.676 97.6102 54.748 97.0582 54.82C96.5302 54.892 96.2422 54.94 96.1942 54.964C96.4822 53.932 96.7702 52.792 97.0582 51.544C97.3462 50.272 97.6342 48.952 97.9222 47.584C98.2342 46.192 98.5222 44.788 98.7862 43.372C99.0742 41.956 99.3502 40.588 99.6142 39.268C100.214 36.196 100.802 33.04 101.378 29.8L106.994 28.9C106.37 32.116 105.746 35.272 105.122 38.368C104.858 39.688 104.582 41.056 104.294 42.472C104.03 43.888 103.766 45.292 103.502 46.684C103.262 48.076 103.01 49.432 102.746 50.752C102.506 52.048 102.29 53.224 102.098 54.28ZM103.509 55.036C104.229 51.796 104.913 48.628 105.561 45.532C105.825 44.236 106.101 42.868 106.389 41.428C106.677 39.988 106.953 38.572 107.217 37.18C107.481 35.788 107.733 34.444 107.973 33.148C108.213 31.852 108.417 30.664 108.585 29.584C109.281 29.368 109.965 29.188 110.637 29.044C111.309 28.876 111.993 28.732 112.689 28.612C113.409 28.492 114.081 28.432 114.705 28.432C115.785 28.432 116.685 28.612 117.405 28.972C118.149 29.332 118.749 29.824 119.205 30.448C119.661 31.048 119.985 31.756 120.177 32.572C120.369 33.388 120.465 34.264 120.465 35.2C120.465 36.544 120.213 37.84 119.709 39.088C119.229 40.336 118.569 41.452 117.729 42.436C116.913 43.396 115.965 44.164 114.885 44.74C113.829 45.316 112.725 45.604 111.573 45.604H111.177C110.985 46.42 110.805 47.308 110.637 48.268C110.469 49.228 110.325 50.116 110.205 50.932C110.037 51.892 109.881 52.852 109.737 53.812L103.509 55.036ZM113.553 32.788C113.289 34.372 113.025 35.872 112.761 37.288C112.497 38.704 112.209 40.216 111.897 41.824C112.281 41.728 112.677 41.512 113.085 41.176C113.517 40.816 113.913 40.36 114.273 39.808C114.633 39.232 114.921 38.572 115.137 37.828C115.353 37.084 115.461 36.304 115.461 35.488C115.461 34.6 115.257 33.928 114.849 33.472C114.465 33.016 114.033 32.788 113.553 32.788ZM120.026 42.904C120.218 41.56 120.422 40.252 120.638 38.98C120.854 37.684 121.058 36.388 121.25 35.092C122.162 35.092 123.062 35.02 123.95 34.876C124.838 34.732 125.726 34.528 126.614 34.264C126.278 35.656 125.99 37.072 125.75 38.512C125.51 39.928 125.282 41.344 125.066 42.76C124.298 42.808 123.518 42.844 122.726 42.868C121.958 42.892 121.202 42.904 120.458 42.904H120.026ZM123.41 52.696C122.522 52.72 121.634 52.792 120.746 52.912C119.882 53.032 119.018 53.224 118.154 53.488C118.418 52.144 118.658 50.812 118.874 49.492C119.09 48.172 119.294 46.84 119.486 45.496C120.014 45.472 120.542 45.46 121.07 45.46C121.622 45.436 122.162 45.424 122.69 45.424C123.026 45.424 123.35 45.424 123.662 45.424C123.974 45.424 124.286 45.436 124.598 45.46C124.382 46.66 124.178 47.872 123.986 49.096C123.794 50.296 123.602 51.496 123.41 52.696Z" fill="#FFC18A"/>
</g>
<g filter="url(#filter1_d)">
<line x1="29.7207" y1="29.2471" x2="12.9463" y2="9.70555" stroke="#FFC18A" stroke-linecap="round"/>
<line x1="36.3809" y1="25.7741" x2="34.5377" y2="0.535397" stroke="#FFC18A" stroke-linecap="round"/>
<line x1="44.6932" y1="25.3629" x2="51.3629" y2="6.30675" stroke="#FFC18A" stroke-linecap="round"/>
<line x1="28.4418" y1="39.4341" x2="5.43412" y2="36.5582" stroke="#FFC18A" stroke-linecap="round"/>
<line x1="26.6648" y1="49.6226" x2="7.62259" y2="55.3352" stroke="#FFC18A" stroke-linecap="round"/>
<line x1="28.4102" y1="56.9796" x2="15.3599" y2="72.6604" stroke="#FFC18A" stroke-linecap="round"/>
</g>
<defs>
<filter id="filter0_d" x="25.8921" y="28.0723" width="104.722" height="35.072" filterUnits="userSpaceOnUse" color-interpolation-filters="sRGB">
<feFlood flood-opacity="0" result="BackgroundImageFix"/>
<feColorMatrix in="SourceAlpha" type="matrix" values="0 0 0 0 0 0 0 0 0 0 0 0 0 0 0 0 0 0 127 0"/>
<feOffset dy="4"/>
<feGaussianBlur stdDeviation="2"/>
<feColorMatrix type="matrix" values="0 0 0 0 0 0 0 0 0 0 0 0 0 0 0 0 0 0 0.25 0"/>
<feBlend mode="normal" in2="BackgroundImageFix" result="effect1_dropShadow"/>
<feBlend mode="normal" in="SourceGraphic" in2="effect1_dropShadow" result="shape"/>
</filter>
<filter id="filter1_d" x="0.875977" y="0" width="55.124" height="81.3645" filterUnits="userSpaceOnUse" color-interpolation-filters="sRGB">
<feFlood flood-opacity="0" result="BackgroundImageFix"/>
<feColorMatrix in="SourceAlpha" type="matrix" values="0 0 0 0 0 0 0 0 0 0 0 0 0 0 0 0 0 0 127 0"/>
<feOffset dy="4"/>
<feGaussianBlur stdDeviation="2"/>
<feColorMatrix type="matrix" values="0 0 0 0 0 0 0 0 0 0 0 0 0 0 0 0 0 0 0.25 0"/>
<feBlend mode="normal" in2="BackgroundImageFix" result="effect1_dropShadow"/>
<feBlend mode="normal" in="SourceGraphic" in2="effect1_dropShadow" result="shape"/>
</filter>
</defs>
</svg>
