<svg width="116" height="74" viewBox="0 0 116 74" fill="none" xmlns="http://www.w3.org/2000/svg">
<path d="M56.1232 2.09599C56.7659 0.350905 59.2341 0.350909 59.8768 2.096L64.3983 14.3732C64.8716 15.6585 66.4677 16.0984 67.5327 15.2371L80.6822 4.60297C82.2611 3.32613 84.5177 4.94248 83.817 6.84829L80.4487 16.0088C79.8622 17.6039 81.4066 19.1573 83.0051 18.5801L99.1618 12.7466C101.283 11.9808 102.852 14.764 101.099 16.1825L94.6537 21.3984C93.1036 22.6528 94.1429 25.1546 96.1255 24.9416L109.853 23.4668C112.204 23.2142 112.971 26.5328 110.746 27.3364L103.16 30.0772C101.165 30.798 101.517 33.7198 103.626 33.9468L113.52 35.0115C115.902 35.2677 115.902 38.7323 113.52 38.9885L103.626 40.0532C101.517 40.2802 101.165 43.202 103.16 43.9228L110.746 46.6636C112.971 47.4672 112.204 50.7858 109.853 50.5332L96.1255 49.0584C94.1429 48.8454 93.1036 51.3472 94.6537 52.6016L101.099 57.8175C102.852 59.236 101.283 62.0191 99.1618 61.2534L83.0051 55.4199C81.4066 54.8427 79.8622 56.3961 80.4487 57.9912L83.817 67.1517C84.5177 69.0575 82.2611 70.6739 80.6822 69.397L67.5327 58.7629C66.4677 57.9016 64.8716 58.3415 64.3983 59.6268L59.8768 71.904C59.2341 73.6491 56.7659 73.6491 56.1232 71.904L51.6017 59.6268C51.1284 58.3415 49.5323 57.9016 48.4673 58.7629L35.3178 69.397C33.7389 70.6739 31.4823 69.0575 32.183 67.1517L35.5513 57.9912C36.1378 56.3961 34.5934 54.8427 32.9949 55.4199L16.8382 61.2534C14.7173 62.0191 13.148 59.236 14.9009 57.8175L21.3463 52.6016C22.8964 51.3472 21.8571 48.8454 19.8745 49.0584L6.1468 50.5332C3.79551 50.7858 3.02946 47.4672 5.25356 46.6636L12.8398 43.9228C14.8346 43.202 14.483 40.2802 12.3741 40.0532L2.47956 38.9885C0.0981922 38.7323 0.0981998 35.2677 2.47956 35.0115L12.3742 33.9468C14.483 33.7198 14.8346 30.798 12.8398 30.0772L5.25356 27.3364C3.02945 26.5328 3.79552 23.2142 6.1468 23.4668L19.8745 24.9416C21.8572 25.1546 22.8964 22.6528 21.3463 21.3984L14.9009 16.1825C13.148 14.764 14.7173 11.9808 16.8382 12.7466L32.9949 18.5801C34.5934 19.1573 36.1378 17.6039 35.5513 16.0088L32.183 6.84829C31.4823 4.94249 33.7389 3.32613 35.3178 4.60297L48.4673 15.2371C49.5323 16.0984 51.1284 15.6585 51.6017 14.3732L56.1232 2.09599Z" fill="#FEFEFE"/>
</svg>
