<svg width="111" height="60" viewBox="0 0 111 60" fill="none" xmlns="http://www.w3.org/2000/svg">
<path d="M51.872 2.81284C53.3056 -0.274286 57.6944 -0.274281 59.1279 2.81284L61.5132 7.94954C62.5411 10.1632 65.2948 10.9482 67.3355 9.60925L75.9967 3.92629C78.8475 2.05581 82.391 5.02382 81.0495 8.15845C79.9047 10.8334 82.3892 13.6339 85.1815 12.816L95.377 9.82966C98.1745 9.01025 99.943 12.7608 97.531 14.3978C95.3534 15.8757 96.5609 19.2829 99.1831 19.0598L106.019 18.4782C108.794 18.2421 109.554 22.2022 106.889 23.0097C104.451 23.7482 104.812 27.3057 107.348 27.5398L107.87 27.588C110.803 27.8587 110.803 32.1413 107.87 32.4121L107.348 32.4603C104.812 32.6944 104.451 36.2519 106.889 36.9903C109.554 37.7979 108.794 41.7579 106.019 41.5218L99.1832 40.9403C96.5609 40.7172 95.3534 44.1244 97.531 45.6023C99.943 47.2392 98.1745 50.9898 95.377 50.1704L85.1815 47.184C82.3892 46.3662 79.9047 49.1667 81.0495 51.8416C82.391 54.9762 78.8475 57.9442 75.9967 56.0738L67.3355 50.3908C65.2948 49.0518 62.5411 49.8368 61.5132 52.0505L59.1279 57.1872C57.6944 60.2743 53.3056 60.2743 51.872 57.1872L49.4868 52.0505C48.4588 49.8368 45.7052 49.0518 43.6645 50.3908L35.0032 56.0738C32.1524 57.9442 28.6089 54.9762 29.9505 51.8416C31.0952 49.1667 28.6107 46.3662 25.8185 47.184L15.6229 50.1704C12.8254 50.9898 11.0569 47.2392 13.4689 45.6023C15.6465 44.1244 14.4391 40.7172 11.8168 40.9403L4.98061 41.5218C2.20548 41.7579 1.44584 37.7979 4.11134 36.9903C6.54868 36.2519 6.18791 32.6944 3.65193 32.4603L3.12982 32.4121C0.196956 32.1413 0.196965 27.8587 3.12983 27.588L3.65195 27.5398C6.18792 27.3057 6.54868 23.7482 4.11134 23.0097C1.44584 22.2022 2.20549 18.2421 4.98061 18.4782L11.8168 19.0598C14.4391 19.2829 15.6465 15.8757 13.4689 14.3978C11.0569 12.7608 12.8254 9.01025 15.6229 9.82966L25.8185 12.816C28.6107 13.6339 31.0952 10.8334 29.9505 8.15845C28.6089 5.02382 32.1524 2.05581 35.0032 3.92629L43.6645 9.60925C45.7052 10.9482 48.4588 10.1632 49.4868 7.94953L51.872 2.81284Z" fill="#FEFEFE"/>
</svg>
